# xmcd CD database file
#
# Track frame offsets:
#	150
#	23452
#	36366
#	66605
#	89051
#	103751
#	121318
#	144399
#	177260
#	209730
#	225167
#
# Disc length: 3218 seconds
#
# Revision: 0
# Processed by: cddbd v1.5.2PL0 Copyright (c) Steve Scherf et al.
# Submitted via: CDex 2.16
#
DISCID=9b0c900b
DTITLE=Ella Fitzgerald - Icon 2 - Disc 1
DYEAR=2014
DGENRE=Blues
TTITLE0=A tisket a-tasket
TTITLE1=Undecided
TTITLE2=Into each life some rain must fall (with the Ink Spots)
TTITLE3=It's only a paper moon
TTITLE4=You won't be satisfied (until you break my heart) (with Louis Armstrong)
TTITLE5=That's my desire
TTITLE6=My happiness
TTITLE7=Baby it's cold outside (with Louis Jordan)
TTITLE8=Dream a little dream of me
TTITLE9=Smooth sailing
TTITLE10=Airmail special
EXTD=YEAR: 2014
EXTT0=
EXTT1=
EXTT2=
EXTT3=
EXTT4=
EXTT5=
EXTT6=
EXTT7=
EXTT8=
EXTT9=
EXTT10=
PLAYORDER=
